<?xml version="1.0" encoding="UTF-8"?>
<svg id="Layer_1" data-name="Layer 1" xmlns="http://www.w3.org/2000/svg" viewBox="0 0 256 256">
  <defs>
    <style>
      .cls-1 {
        fill: #fff;
      }

      .cls-2 {
        fill: #05cafa;
      }
    </style>
  </defs>
  <rect class="cls-2" width="256" height="256"/>
  <g>
    <path class="cls-1" d="M39.63,102.16c3.65,0,5.48-1.04,5.48-3.27,0-1.75-3.01-3.2-8.96-4.24-7.63-1.37-11.57-4.76-11.64-10.19,0-7.44,5.88-10.97,13.77-11.09,4.43,0,7.96,.97,10.57,2.94,2.56,2.01,3.91,4.84,4.12,8.41h-5.48c-2.01-.07-3.34-.78-3.86-2.16-.59-1.49-2.35-2.35-5.24-2.35-3.39,0-5.1,.92-5.1,2.68s2.23,3.13,6.73,3.98c5.88,1.19,9.74,2.68,11.64,4.43,1.64,1.71,2.42,3.79,2.42,6.14,0,8.49-6.66,11.61-15.81,11.61-4.84,0-8.49-1.04-10.83-3.08-2.61-1.97-3.91-4.95-3.91-8.96h8.89c.21,3.84,2.96,5.14,7.21,5.14h0Z"/>
    <path class="cls-1" d="M84.57,108.42c-2.87-.19-4.31-1.56-4.31-4.31v-17.78c-.19-3.6-2.16-5.36-6.02-5.36s-5.81,1.75-5.88,5.36v22.07h-8.82v-20.31c0-9.86,4.95-14.77,14.84-14.77s14.7,4.91,14.63,14.77v20.31h-4.43v.02Z"/>
    <path class="cls-1" d="M125.72,91.31c0,11.88-5.29,17.9-15.74,17.9s-15.67-6.02-15.67-17.9,5.21-17.97,15.67-17.97,15.74,5.95,15.74,17.97Zm-22.61,0c.07,6.73,2.35,10.12,6.8,10.12s6.66-3.53,6.73-10.38c0-6.73-2.23-10.05-6.66-10.05s-6.87,3.46-6.87,10.31h0Z"/>
    <path class="cls-1" d="M177.45,73.88l-9.6,34.56h-9.01l-5.24-24.77-5.5,24.75h-9.08l-9.48-34.56h8.82l5.52,23.99,4.95-23.96h9.2l4.69,23.96,4.69-20.76c.66-2.16,2.09-3.2,4.24-3.2h5.78Z"/>
    <path class="cls-1" d="M56.41,129.66v25.08c0,10.38-5.43,15.55-16.19,15.48-10.71-.19-16.07-6-16.07-17.49s4.57-17.78,13.77-18.09c4.31,0,7.63,1.75,9.86,5.36v-14.7h4.31c2.35-.02,4.31,1.99,4.31,4.36Zm-23.32,22.66c-.07,6.99,2.28,10.52,7.25,10.52s7.44-3.53,7.44-10.52c-.19-6.66-2.61-9.93-7.32-9.93s-7.11,3.27-7.37,9.93Z"/>
    <path class="cls-1" d="M61.96,151.87c.26-11.16,6.21-16.71,17.75-16.71h1.23v9.01h-2.94c-4.84,0-7.25,2.56-7.25,7.59v17.97h-8.82l.02-17.85h0Z"/>
    <path class="cls-1" d="M102.07,170.48c-10.45-.33-15.67-6.4-15.67-18.16s5.29-17.64,15.81-17.71c10.97,0,16.14,6.73,15.48,20.24h-22.33c.33,5.29,2.61,7.96,6.85,7.96,2.01,0,3.91-.85,5.62-2.49,.78-.85,1.75-1.23,2.94-1.23h6.4c-1.9,7.32-6.61,11.38-15.1,11.38h0Zm-6.59-21.81h12.99c-.52-4.57-2.68-6.92-6.4-6.92s-5.95,2.35-6.59,6.92Z"/>
    <path class="cls-1" d="M132.31,144.14h-8.7c1.04-6.4,5.55-9.53,13.51-9.53,9.53,0,14.36,3.13,14.58,9.53v11.76c0,9.53-5.74,13.77-15.1,14.44-8.3,.66-14.03-3.2-14.03-10.83,.19-8.3,6.21-10.52,14.96-11.38,3.72-.45,5.62-1.56,5.62-3.46-.19-1.97-2.01-2.94-5.62-2.94-3.06,.02-4.76,.81-5.21,2.42h0Zm10.97,11.38v-3.2c-2.01,.85-4.39,1.56-6.92,2.09-3.46,.66-5.21,2.28-5.21,4.84,.19,2.75,1.64,4.05,4.39,4.05,4.81,0,7.75-2.87,7.75-7.77h0Z"/>
    <path class="cls-1" d="M166.35,147.63v22.07h-8.82v-20.31c0-9.86,4.95-14.77,14.81-14.77,4.43,0,7.85,.97,10.31,2.94,2.49-1.9,5.88-2.8,10.31-2.8,9.86,0,14.77,4.91,14.7,14.77v20.31h-4.5c-2.87-.19-4.31-1.56-4.31-4.31v-17.78c-.19-3.6-2.16-5.36-6-5.36s-5.81,1.75-5.88,5.36v21.95h-8.75v-22.07c-.19-3.6-2.16-5.36-6-5.36s-5.83,1.75-5.88,5.36h0Z"/>
    <path class="cls-1" d="M39.63,224.69c3.65,0,5.48-1.04,5.48-3.27,0-1.75-3.01-3.2-8.96-4.24-7.63-1.37-11.57-4.76-11.64-10.19,0-7.44,5.88-10.97,13.77-11.09,4.43,0,7.96,.97,10.57,2.94,2.56,2.01,3.91,4.84,4.12,8.41h-5.48c-2.01-.07-3.34-.78-3.86-2.16-.59-1.49-2.35-2.35-5.24-2.35-3.39,0-5.1,.92-5.1,2.68s2.23,3.13,6.73,3.98c5.88,1.19,9.74,2.68,11.64,4.43,1.64,1.71,2.42,3.79,2.42,6.14,0,8.49-6.66,11.61-15.81,11.61-4.84,0-8.49-1.04-10.83-3.08-2.61-1.97-3.91-4.95-3.91-8.96h8.89c.21,3.84,2.96,5.14,7.21,5.14h0Z"/>
    <path class="cls-1" d="M69.14,202.6h-.92v19.13c0,1.45,.85,2.23,2.56,2.23h2.68v6.59c-2.82,.26-5.88,.26-9.15-.07s-4.84-2.35-4.76-6.21v-37.74h4.5c2.28,0,4.17,2.09,4.17,4.39v5.5h5.21v1.9c.02,2.47-1.87,4.29-4.29,4.29h0Z"/>
    <path class="cls-1" d="M107.83,217.17c0,5.95-1.49,9.86-4.57,11.76-3.08,1.75-6.47,2.68-10.19,2.68s-6.8-.97-9.79-2.94c-3.01-1.9-4.5-5.69-4.5-11.5v-20.76h8.68v22.54c0,3.86,1.97,5.74,5.88,5.74s5.88-1.9,5.88-5.74v-18.23c-.07-2.87,1.3-4.31,4.17-4.31h4.43l.02,20.76h0Z"/>
    <path class="cls-1" d="M145.11,190.91v25.08c0,10.38-5.43,15.55-16.19,15.48-10.71-.19-16.07-6-16.07-17.49s4.57-17.78,13.77-18.09c4.31,0,7.63,1.75,9.86,5.36v-14.7h4.31c2.35-.02,4.31,2.01,4.31,4.36h0Zm-23.32,22.66c-.07,6.99,2.3,10.52,7.25,10.52s7.44-3.53,7.44-10.52c-.19-6.66-2.61-9.93-7.32-9.93s-7.11,3.27-7.37,9.93Z"/>
    <path class="cls-1" d="M155.16,186.55c2.87,0,4.24,1.45,4.17,4.24v2.56h-8.7v-6.8h4.53Zm0,9.86c2.8,0,4.17,1.37,4.17,4.17v30.36h-8.7v-34.54h4.53Z"/>
    <path class="cls-1" d="M197.05,213.83c0,11.9-5.29,17.9-15.74,17.9s-15.67-6-15.67-17.9,5.21-17.97,15.67-17.97,15.74,5.95,15.74,17.97Zm-22.61,0c.07,6.73,2.35,10.12,6.8,10.12s6.66-3.51,6.73-10.38c0-6.73-2.23-10.05-6.66-10.05s-6.87,3.46-6.87,10.31h0Z"/>
    <path class="cls-1" d="M217.93,224.69c3.65,0,5.5-1.04,5.5-3.27,0-1.75-3.01-3.2-8.96-4.24-7.63-1.37-11.57-4.76-11.61-10.19,0-7.44,5.88-10.97,13.77-11.09,4.43,0,7.96,.97,10.57,2.94,2.56,2.01,3.91,4.84,4.12,8.41h-5.5c-2.01-.07-3.32-.78-3.86-2.16-.59-1.49-2.35-2.35-5.21-2.35-3.39,0-5.1,.92-5.1,2.68s2.23,3.13,6.73,3.98c5.88,1.19,9.74,2.68,11.61,4.43,1.64,1.71,2.42,3.79,2.42,6.14,0,8.49-6.66,11.61-15.81,11.61-4.84,0-8.49-1.04-10.83-3.08-2.61-1.97-3.91-4.95-3.91-8.96h8.89c.21,3.84,2.94,5.14,7.18,5.14h0Z"/>
  </g>
</svg>